<?xml version="1.0" standalone="no"?>
<!DOCTYPE svg PUBLIC "-//W3C//DTD SVG 20010904//EN"
 "http://www.w3.org/TR/2001/REC-SVG-20010904/DTD/svg10.dtd">
<svg version="1.0" xmlns="http://www.w3.org/2000/svg"
 width="32.000000pt" height="32.000000pt" viewBox="0 0 32.000000 32.000000"
 preserveAspectRatio="xMidYMid meet">
<metadata>
Created by potrace 1.15, written by Peter Selinger 2001-2017
</metadata>
<g transform="translate(0.000000,32.000000) scale(0.100000,-0.100000)"
fill="#000000" stroke="none">
<path d="M143 303 c-8 -3 -13 -25 -13 -59 l0 -54 -55 0 c-54 0 -55 -1 -55 -28
0 -27 2 -28 53 -27 l52 0 3 -57 c3 -54 5 -58 27 -58 22 0 24 4 27 58 l3 57 58
-1 c56 -1 57 -1 57 27 0 29 -1 29 -60 29 l-59 0 -3 57 c-3 55 -10 66 -35 56z"/>
</g>
</svg>
